<?xml version="1.0" encoding="UTF-8"?>
<!DOCTYPE svg PUBLIC "-//W3C//DTD SVG 1.1//EN" "http://www.w3.org/Graphics/SVG/1.1/DTD/svg11.dtd">
<svg xmlns="http://www.w3.org/2000/svg" version="1.1" width="1300px" height="604px" style="shape-rendering:geometricPrecision; text-rendering:geometricPrecision; image-rendering:optimizeQuality; fill-rule:evenodd; clip-rule:evenodd" xmlns:xlink="http://www.w3.org/1999/xlink">
<g><path style="opacity:0.971" fill="#ed1103" d="M 494.5,127.5 C 486.877,133.961 480.044,141.295 474,149.5C 467.755,159.966 464.588,171.299 464.5,183.5C 487.28,185.577 506.613,178.577 522.5,162.5C 569.568,239.096 576.068,319.096 542,402.5C 506.314,477.167 448.148,524.334 367.5,544C 270.294,561.597 187.794,534.763 120,463.5C 69.1831,401.578 50.1831,330.911 63,251.5C 69.8493,213.152 84.8493,178.485 108,147.5C 101.151,160.868 94.4846,174.535 88,188.5C 82.5432,200.87 77.8765,213.537 74,226.5C 72.3446,232.756 71.678,239.089 72,245.5C 74.8027,236.758 77.8027,228.092 81,219.5C 77.2446,235.617 74.2446,251.95 72,268.5C 71.3343,275.488 70.8343,282.488 70.5,289.5C 70.3723,293.02 70.8723,296.353 72,299.5C 72.298,251.621 85.298,207.621 111,167.5C 112,166.5 113,165.5 114,164.5C 110.34,172.146 106.34,179.813 102,187.5C 82.852,229.237 75.852,272.903 81,318.5C 85.8804,341.808 93.5471,364.142 104,385.5C 100.169,372.322 96.5022,358.989 93,345.5C 87.4487,319.436 85.4487,293.103 87,266.5C 91.1353,253.499 94.1353,240.166 96,226.5C 98.1681,217.991 101.501,209.991 106,202.5C 106.333,203.167 106.667,203.833 107,204.5C 118.104,178.609 133.437,155.609 153,135.5C 151.462,139.754 148.962,143.587 145.5,147C 147.167,146.667 148.833,146.333 150.5,146C 120.236,182.038 102.736,223.538 98,270.5C 101.779,241.825 111.113,215.159 126,190.5C 121.73,200.388 117.397,210.388 113,220.5C 108.573,231.878 105.573,243.544 104,255.5C 107.562,241.587 111.895,227.92 117,214.5C 118.268,212.283 119.768,210.283 121.5,208.5C 122.619,211.596 122.286,214.596 120.5,217.5C 121.718,217.109 122.552,217.776 123,219.5C 125.233,213.293 128.899,208.293 134,204.5C 134.5,204.833 135,205.167 135.5,205.5C 129.591,220.128 124.758,235.128 121,250.5C 118.927,260.081 117.927,269.748 118,279.5C 122.745,259.931 129.078,240.931 137,222.5C 134.298,235.309 132.964,248.309 133,261.5C 133.934,257.363 135.268,253.363 137,249.5C 137.333,250.5 137.667,251.5 138,252.5C 140.545,243.531 143.879,234.864 148,226.5C 147.324,232.212 146.158,237.879 144.5,243.5C 146.371,243.141 147.871,242.141 149,240.5C 156.542,222.408 165.875,205.408 177,189.5C 180.833,184.333 185.333,179.833 190.5,176C 191.635,175.251 192.635,175.417 193.5,176.5C 186.429,184.974 180.095,193.974 174.5,203.5C 175.025,204.192 175.692,204.692 176.5,205C 145.019,260.221 143.852,316.055 173,372.5C 212.636,436.729 269.803,462.562 344.5,450C 414.033,431.128 453.867,385.961 464,314.5C 465.581,295.56 464.081,276.894 459.5,258.5C 470.373,256.931 480.373,253.098 489.5,247C 484.09,241.629 477.756,237.795 470.5,235.5C 475.294,233.269 479.961,230.769 484.5,228C 486.213,226.622 487.547,224.955 488.5,223C 473.014,213.763 456.348,210.93 438.5,214.5C 435.22,209.219 431.553,204.219 427.5,199.5C 434.512,183.795 436.345,167.462 433,150.5C 432.439,149.978 431.772,149.645 431,149.5C 424.066,152.766 418.733,157.766 415,164.5C 414.752,159.437 414.085,154.437 413,149.5C 411.985,146.79 410.485,144.457 408.5,142.5C 403.077,146.918 398.411,151.918 394.5,157.5C 394.167,157.5 393.833,157.5 393.5,157.5C 393.158,156.662 392.492,156.328 391.5,156.5C 370.287,145.359 347.62,138.859 323.5,137C 302.643,134.641 282.31,136.808 262.5,143.5C 261.068,143.267 260.568,142.6 261,141.5C 277.226,134.653 294.059,129.819 311.5,127C 295.187,125.805 279.187,127.805 263.5,133C 253.181,139.967 242.348,146.133 231,151.5C 236.936,144.553 243.436,137.72 250.5,131C 253.833,129 257.167,127 260.5,125C 250.432,126.913 240.765,130.246 231.5,135C 225.577,138.88 219.41,142.38 213,145.5C 212.667,144.833 212.333,144.167 212,143.5C 203.22,149.28 194.72,155.446 186.5,162C 185.256,162.456 184.423,161.956 184,160.5C 182.981,161.687 181.814,162.687 180.5,163.5C 179.479,162.998 179.312,162.332 180,161.5C 182.833,158 185.667,154.5 188.5,151C 187.376,150.751 186.376,150.251 185.5,149.5C 211.159,124.998 241.492,108.832 276.5,101C 295.967,96.8643 315.634,95.5309 335.5,97C 345.229,97.9394 354.896,98.9394 364.5,100C 328.642,91.4403 292.975,92.4403 257.5,103C 243.165,107.669 229.165,113.169 215.5,119.5C 215.002,118.397 214.669,117.397 214.5,116.5C 195.387,127.442 194.72,126.275 212.5,113C 243.897,95.4243 277.564,85.091 313.5,82C 310.294,81.7037 307.128,81.2037 304,80.5C 287.443,84.7871 270.61,87.2871 253.5,88C 239.529,91.3199 226.195,96.3199 213.5,103C 198.417,110.954 183.917,119.788 170,129.5C 169.383,128.551 169.549,127.718 170.5,127C 194.177,107.156 220.844,92.4894 250.5,83C 264.106,80.0102 277.772,77.3436 291.5,75C 292.888,74.1107 292.722,73.6107 291,73.5C 275.457,74.875 260.123,77.5417 245,81.5C 242.027,81.0281 242.193,80.1948 245.5,79C 245,78.8333 244.5,78.6667 244,78.5C 225.406,84.7976 207.406,92.4643 190,101.5C 189.312,100.668 189.479,100.002 190.5,99.5C 229.156,75.6244 271.323,63.9577 317,64.5C 324.835,65.1289 332.668,65.2956 340.5,65C 296.196,59.4724 253.696,65.9724 213,84.5C 211.278,84.3893 211.112,83.8893 212.5,83C 236.829,71.916 262.162,63.916 288.5,59C 266.395,60.3994 244.895,64.8994 224,72.5C 222.278,72.3893 222.112,71.8893 223.5,71C 310.83,39.1436 392.163,50.1436 467.5,104C 476.668,111.669 485.668,119.503 494.5,127.5 Z M 189.5,155.5 C 199.663,144.744 211.329,135.911 224.5,129C 229.385,126.379 234.385,124.379 239.5,123C 230.371,127.732 221.371,132.732 212.5,138C 204.654,143.69 196.987,149.523 189.5,155.5 Z M 144.5,243.5 C 144.703,253.915 143.87,264.248 142,274.5C 141.798,272.744 141.298,271.078 140.5,269.5C 139.749,270.376 139.249,271.376 139,272.5C 139.501,262.501 141.334,252.835 144.5,243.5 Z"/></g>
<g><path style="opacity:0.981" fill="#f5b4ba" d="M 522.5,162.5 C 506.613,178.577 487.28,185.577 464.5,183.5C 464.588,171.299 467.755,159.966 474,149.5C 480.044,141.295 486.877,133.961 494.5,127.5C 502.604,123.021 511.27,120.354 520.5,119.5C 520.608,123.247 520.108,126.914 519,130.5C 517.581,133.974 516.248,137.307 515,140.5C 521.357,137.006 528.19,135.673 535.5,136.5C 533.823,146.52 529.49,155.187 522.5,162.5 Z"/></g>
<g><path style="opacity:0.888" fill="#ed1103" d="M 391.5,156.5 C 391.842,157.338 392.508,157.672 393.5,157.5C 393.5,158.167 393.833,158.5 394.5,158.5C 392.738,162.362 390.738,166.028 388.5,169.5C 367.327,158.169 344.66,152.003 320.5,151C 318.381,150.902 316.714,150.069 315.5,148.5C 315.709,147.914 316.043,147.414 316.5,147C 323.475,146.079 330.475,145.412 337.5,145C 332.972,144.528 328.639,143.528 324.5,142C 347.814,142.296 370.148,147.13 391.5,156.5 Z"/></g>
<g><path style="opacity:0.98" fill="#f5b4ba" d="M 427.5,199.5 C 420.051,212.611 409.384,222.278 395.5,228.5C 384.467,209.87 382.134,190.203 388.5,169.5C 390.738,166.028 392.738,162.362 394.5,158.5C 394.5,158.167 394.5,157.833 394.5,157.5C 398.411,151.918 403.077,146.918 408.5,142.5C 410.485,144.457 411.985,146.79 413,149.5C 414.085,154.437 414.752,159.437 415,164.5C 418.733,157.766 424.066,152.766 431,149.5C 431.772,149.645 432.439,149.978 433,150.5C 436.345,167.462 434.512,183.795 427.5,199.5 Z"/></g>
<g><path style="opacity:0.948" fill="#1e1f1e" d="M 1109.5,153.5 C 1115.07,152.416 1119.57,154.083 1123,158.5C 1124.27,174.78 1124.94,191.114 1125,207.5C 1138.1,196.284 1152.94,193.45 1169.5,199C 1179.74,203.942 1186.9,211.776 1191,222.5C 1196.44,239.075 1196.77,255.741 1192,272.5C 1180.61,300.94 1160.78,309.106 1132.5,297C 1129.37,294.872 1126.54,292.372 1124,289.5C 1120.52,301.177 1113.85,303.51 1104,296.5C 1102.35,251.226 1102.02,205.892 1103,160.5C 1104.02,156.985 1106.18,154.652 1109.5,153.5 Z M 1146.5,212.5 C 1162.68,213.511 1171.51,222.178 1173,238.5C 1174.28,249.735 1173.28,260.735 1170,271.5C 1164.55,283.306 1155.39,287.806 1142.5,285C 1134.13,282.632 1128.3,277.465 1125,269.5C 1124.05,255.098 1124.39,240.765 1126,226.5C 1130.65,218.44 1137.48,213.773 1146.5,212.5 Z"/></g>
<g><path style="opacity:0.929" fill="#1e1f1e" d="M 1224.5,153.5 C 1235.81,152.978 1240.65,158.311 1239,169.5C 1235.36,175.177 1230.2,177.01 1223.5,175C 1218.21,171.565 1216.37,166.732 1218,160.5C 1219.42,157.394 1221.59,155.06 1224.5,153.5 Z"/></g>
<g><path style="opacity:0.954" fill="#1e1f1e" d="M 624.5,157.5 C 632.699,156.181 638.532,159.181 642,166.5C 648.462,201.81 654.795,237.143 661,272.5C 667.892,236.146 674.892,199.813 682,163.5C 685.363,158.486 690.029,156.486 696,157.5C 702.229,156.573 707.229,158.573 711,163.5C 717.941,199.477 724.774,235.477 731.5,271.5C 738.322,236.236 744.822,200.903 751,165.5C 755.381,157.417 761.714,155.417 770,159.5C 772.887,164.56 773.22,169.893 771,175.5C 762.713,215.273 754.046,254.94 745,294.5C 739.331,300.212 732.497,302.045 724.5,300C 720.749,298.585 717.916,296.085 716,292.5C 709.011,256.236 702.345,219.903 696,183.5C 689.588,220.224 682.922,256.89 676,293.5C 672.534,298.888 667.534,301.221 661,300.5C 655.792,301.061 651.459,299.395 648,295.5C 645.58,290.073 643.913,284.407 643,278.5C 635.167,241.333 627.333,204.167 619.5,167C 619.758,163.038 621.424,159.871 624.5,157.5 Z"/></g>
<g><path style="opacity:0.963" fill="#f4b5ba" d="M 321.5,171.5 C 358.505,175.507 379.838,195.84 385.5,232.5C 354.471,238.057 329.971,228.057 312,202.5C 309.928,199.029 308.428,195.362 307.5,191.5C 310.483,191.102 313.483,190.768 316.5,190.5C 320.887,191.083 325.22,191.583 329.5,192C 324.188,186.207 321.521,179.374 321.5,171.5 Z"/></g>
<g><path style="opacity:0.949" fill="#1e1f1e" d="M 817.5,196.5 C 828.216,196.156 838.882,196.656 849.5,198C 865.715,202.544 873.548,213.377 873,230.5C 873.667,251.167 873.667,271.833 873,292.5C 870.852,298.995 866.352,301.495 859.5,300C 854.416,297.447 851.916,293.281 852,287.5C 839.376,301.767 823.876,305.934 805.5,300C 793.692,294.064 788.025,284.398 788.5,271C 789.02,252.475 798.353,241.142 816.5,237C 828.053,234.81 839.72,233.976 851.5,234.5C 852.676,219.175 845.51,211.842 830,212.5C 820.389,213.589 810.889,215.256 801.5,217.5C 799.192,217.635 797.192,216.969 795.5,215.5C 793.33,209.673 794.663,204.839 799.5,201C 805.509,199.037 811.509,197.537 817.5,196.5 Z M 832.5,249.5 C 838.833,249.5 845.167,249.5 851.5,249.5C 853.506,263.345 848.839,274.179 837.5,282C 830.113,285.231 822.78,285.231 815.5,282C 807,272.329 807.667,263.329 817.5,255C 822.34,252.386 827.34,250.553 832.5,249.5 Z"/></g>
<g><path style="opacity:0.948" fill="#1e1f1e" d="M 922.5,196.5 C 936.028,195.74 949.361,196.907 962.5,200C 966.789,203.535 968.289,208.035 967,213.5C 966.097,214.701 964.931,215.535 963.5,216C 952.939,214.181 942.272,213.181 931.5,213C 923.315,212.744 917.981,216.41 915.5,224C 915.856,228.013 917.523,231.347 920.5,234C 929.128,238.075 938.128,241.075 947.5,243C 967.626,249.415 975.126,262.915 970,283.5C 965.614,293.283 958.114,299.116 947.5,301C 932.231,303.62 917.231,302.62 902.5,298C 897.919,294.562 896.419,290.062 898,284.5C 898.903,283.299 900.069,282.465 901.5,282C 907.192,282.502 912.858,283.502 918.5,285C 927.342,286.126 936.008,285.459 944.5,283C 950.796,277.027 951.129,270.694 945.5,264C 932.052,259.07 918.719,253.737 905.5,248C 893.412,236.956 891.245,224.122 899,209.5C 905.368,202.402 913.201,198.068 922.5,196.5 Z"/></g>
<g><path style="opacity:0.953" fill="#1e1f1e" d="M 1019.5,196.5 C 1031.62,195.927 1043.62,196.76 1055.5,199C 1068.11,203.641 1074.61,212.807 1075,226.5C 1075.67,249.167 1075.67,271.833 1075,294.5C 1071.25,300.542 1066.09,302.042 1059.5,299C 1056.12,295.588 1054.62,291.422 1055,286.5C 1048.97,295.606 1040.47,300.772 1029.5,302C 1012.77,305.329 1000.61,299.496 993,284.5C 986.444,260.439 994.944,244.606 1018.5,237C 1030.31,235.129 1042.14,233.962 1054,233.5C 1054.47,227.448 1052.97,221.948 1049.5,217C 1044.19,214.224 1038.52,212.724 1032.5,212.5C 1022.72,213.523 1013.05,215.19 1003.5,217.5C 997.195,217.008 995.028,213.675 997,207.5C 997.883,204.898 999.383,202.731 1001.5,201C 1007.58,199.29 1013.58,197.79 1019.5,196.5 Z M 1035.5,249.5 C 1041.76,249.19 1047.92,249.524 1054,250.5C 1055.46,263.069 1051.29,273.236 1041.5,281C 1035.19,284.194 1028.52,285.194 1021.5,284C 1012.17,277.819 1010,269.652 1015,259.5C 1020.75,253.762 1027.58,250.428 1035.5,249.5 Z"/></g>
<g><path style="opacity:0.977" fill="#1e1f1e" d="M 1223.5,198.5 C 1230.2,196.984 1235.37,198.984 1239,204.5C 1239.67,234.167 1239.67,263.833 1239,293.5C 1235.23,300.414 1229.73,302.247 1222.5,299C 1220.62,297.457 1219.12,295.624 1218,293.5C 1217.33,264.167 1217.33,234.833 1218,205.5C 1218.97,202.379 1220.8,200.046 1223.5,198.5 Z"/></g>
<g><path style="opacity:0.981" fill="#f5b4ba" d="M 459.5,258.5 C 436.893,260.862 417.893,253.695 402.5,237C 412.031,225.652 424.031,218.152 438.5,214.5C 456.348,210.93 473.014,213.763 488.5,223C 487.547,224.955 486.213,226.622 484.5,228C 479.961,230.769 475.294,233.269 470.5,235.5C 477.756,237.795 484.09,241.629 489.5,247C 480.373,253.098 470.373,256.931 459.5,258.5 Z"/></g>
<g><path style="opacity:0.96" fill="#f4b5ba" d="M 362.5,241.5 C 370.191,241.403 377.858,241.737 385.5,242.5C 380.812,279.855 359.812,300.855 322.5,305.5C 322.717,297.677 325.384,290.844 330.5,285C 323.629,286.39 316.629,286.723 309.5,286C 308.978,285.439 308.645,284.772 308.5,284C 318.877,259.997 336.877,245.83 362.5,241.5 Z"/></g>
<g><path style="opacity:0.963" fill="#f4b5ba" d="M 395.5,246.5 C 413.597,252.761 426.431,264.761 434,282.5C 438.839,296.302 439.672,310.302 436.5,324.5C 429.053,321.89 423.22,317.224 419,310.5C 418.667,314.833 418.333,319.167 418,323.5C 417.35,326.965 415.85,329.965 413.5,332.5C 392.201,315.113 384.034,292.78 389,265.5C 390.677,258.968 392.844,252.634 395.5,246.5 Z"/></g>
<g><path style="opacity:0.947" fill="#1e1f1e" d="M 629.5,340.5 C 658.502,340.333 687.502,340.5 716.5,341C 725.878,345.56 726.878,351.56 719.5,359C 707.924,359.178 696.424,359.678 685,360.5C 684.667,399.167 684.333,437.833 684,476.5C 680.489,483.562 674.989,485.728 667.5,483C 664.813,481.125 662.979,478.625 662,475.5C 661.5,436.835 661.333,398.168 661.5,359.5C 649.829,359.667 638.162,359.5 626.5,359C 619.422,351.485 620.422,345.318 629.5,340.5 Z"/></g>
<g><path style="opacity:0.951" fill="#1e1f1e" d="M 757.5,379.5 C 787.274,378.44 804.774,392.44 810,421.5C 812.776,439.199 809.443,455.533 800,470.5C 789.958,481.434 777.458,486.767 762.5,486.5C 735.358,485.854 719.525,472.188 715,445.5C 711.946,427.437 715.279,410.77 725,395.5C 733.878,385.977 744.711,380.644 757.5,379.5 Z M 756.5,396.5 C 774.803,394.967 785.303,403.3 788,421.5C 789.339,433.075 788.339,444.408 785,455.5C 778.871,466.886 769.371,471.386 756.5,469C 744.499,465.321 737.999,457.155 737,444.5C 735.661,432.925 736.661,421.592 740,410.5C 743.585,403.403 749.085,398.736 756.5,396.5 Z"/></g>
<g><path style="opacity:0.963" fill="#1e1f1e" d="M 838.5,381.5 C 844.583,381.286 848.75,383.952 851,389.5C 851.052,412.542 851.719,435.542 853,458.5C 855.703,465.861 861.036,469.528 869,469.5C 881.563,467.609 889.896,460.609 894,448.5C 894.023,427.744 894.689,407.078 896,386.5C 901.636,380.243 907.636,379.909 914,385.5C 915.651,416.414 915.984,447.414 915,478.5C 909.445,486.074 903.445,486.408 897,479.5C 895.956,477.285 895.29,474.952 895,472.5C 879.442,487.065 861.942,489.898 842.5,481C 835.639,475.105 831.805,467.605 831,458.5C 830.333,434.833 830.333,411.167 831,387.5C 832.707,384.41 835.207,382.41 838.5,381.5 Z"/></g>
<g><path style="opacity:0.941" fill="#1e1f1e" d="M 951.5,381.5 C 962.474,382.398 966.974,388.398 965,399.5C 976.019,386.938 989.852,381.438 1006.5,383C 1011.83,388 1011.83,393 1006.5,398C 997.999,399.251 989.666,401.251 981.5,404C 972.363,409.15 967.197,416.983 966,427.5C 965.667,443.833 965.333,460.167 965,476.5C 961.489,483.562 955.989,485.728 948.5,483C 945.412,480.924 943.579,478.091 943,474.5C 942.333,446.833 942.333,419.167 943,391.5C 943.565,386.11 946.398,382.777 951.5,381.5 Z"/></g>
</svg>
